<svg width="17" height="15" viewBox="0 0 17 15" xmlns="http://www.w3.org/2000/svg" xmlns:sketch="http://www.bohemiancoding.com/sketch/ns"><title>git</title><desc>Created with Sketch.</desc><path d="M8.5 12.855c-.318 0-.636-.166-.965-.498-.13-.131-.13-.343 0-.474.13-.131.34-.131.47 0 .203.204.365.304.496.304s.293-.099.496-.304c.13-.131.34-.131.47 0 .13.131.13.343 0 .474-.329.332-.647.498-.965.498zm-8.5-5.129c0 .835.071 1.592.212 2.271.142.679.341 1.268.598 1.767.257.499.581.936.974 1.311.393.376.819.685 1.279.928.46.243.987.44 1.58.59.593.15 1.197.255 1.811.316.614.06 1.29.09 2.028.09s1.415-.03 2.032-.09 1.222-.165 1.815-.316c.593-.15 1.122-.347 1.585-.59.463-.243.893-.553 1.288-.928.396-.376.722-.813.978-1.311.257-.499.458-1.088.602-1.767.145-.679.217-1.436.217-2.271 0-1.496-.46-2.785-1.381-3.867.053-.144.099-.309.137-.496.038-.186.075-.449.111-.789.035-.34.022-.732-.04-1.176-.062-.445-.179-.898-.35-1.361l-.133-.027c-.089-.018-.233-.012-.434.018-.201.03-.435.084-.704.162-.269.078-.615.233-1.04.464-.425.231-.874.524-1.346.879-.803-.246-1.91-.504-3.32-.504-1.411 0-2.52.258-3.329.504-.472-.355-.922-.646-1.35-.874-.428-.228-.77-.385-1.027-.469-.257-.084-.494-.138-.713-.162-.218-.024-.359-.032-.421-.023l-.137.032c-.171.463-.289.916-.354 1.361-.065.445-.08.835-.044 1.172.035.337.074.601.115.793.041.192.089.358.142.496-.921 1.076-1.381 2.365-1.381 3.867zm2.267 1.907c0-.971.354-1.852 1.063-2.643.212-.241.459-.424.739-.548.28-.124.599-.194.956-.211.357-.017.698-.013 1.023.01l1.204.095c.478.04.891.06 1.24.06.348 0 .761-.02 1.24-.06l1.204-.095c.325-.023.666-.027 1.023-.01.357.017.677.087.961.211.283.124.531.306.744.548.708.79 1.063 1.671 1.063 2.643 0 .569-.059 1.077-.177 1.522-.118.446-.267.819-.447 1.12-.18.301-.432.556-.757.764-.325.208-.639.368-.943.482-.304.114-.697.203-1.178.266-.481.064-.912.102-1.293.116-.381.013-.86.02-1.439.02-.578 0-1.057-.007-1.434-.02-.378-.013-.807-.052-1.288-.116s-.874-.152-1.178-.266c-.304-.114-.618-.275-.943-.482-.325-.208-.577-.462-.757-.764-.18-.301-.329-.675-.447-1.12-.118-.445-.177-.953-.177-1.522zm1.983-.526c0 .888.476 1.607 1.063 1.607s1.063-.72 1.063-1.607c0-.574-.203-1.105-.531-1.392-.329-.287-.734-.287-1.063 0-.329.287-.531.818-.531 1.392zm6.375 0c0 .888.476 1.607 1.063 1.607s1.063-.72 1.063-1.607c0-.888-.476-1.607-1.063-1.607s-1.063.72-1.063 1.607z" sketch:type="MSShapeGroup" fill="#171515"/></svg>